<svg xmlns="http://www.w3.org/2000/svg" fill="none" viewBox="0 0 135 27"><path fill="#000" d="M6.81 26.292H.001V9.539H4.11v2.331a1.876 1.876 0 0 0 3.752 0V9.54h5.86v2.173a2.033 2.033 0 0 0 4.067 0V9.539h3.998v16.753h-7.132v-5.026a3.922 3.922 0 0 0-7.843 0v5.026Z"/><path fill="#000" d="M9.904.543v10.431h1.827V6.297s.467-.96 2.169-.536c2.252.56 5.026.18 6.807-3.044C15.31 4.495 15.165-1.616 9.904.543ZM39.449 17.888c-.105-.04-.12-.092-.12-.137 0-.072.018-.092.03-.107.013-.017.047-.054.152-.107 1.379-.782 2.08-1.945 2.08-3.45 0-1.506-.485-2.572-1.442-3.372-.951-.81-2.243-1.222-3.843-1.222H29.75v16.792H36.3c1.66 0 2.986-.413 3.935-1.223.972-.814 1.464-1.987 1.464-3.488 0-1.848-.758-3.09-2.254-3.689l.003.003Zm-1.133-1.829c-.502.385-1.257.579-2.244.579h-3.818v-4.872h3.819c.986 0 1.741.194 2.245.579.51.378.768 1.001.768 1.856 0 .854-.258 1.478-.768 1.856l-.002.002Zm-6.062 2.852h3.819c1.048 0 1.84.201 2.36.601.509.378.767 1.034.767 1.948 0 .914-.258 1.58-.767 1.97-.517.385-1.312.58-2.36.58h-3.819v-5.101.002ZM52.559 20.424c0 1.381-.318 2.437-.942 3.138-.606.68-1.498 1.026-2.645 1.026-1.012 0-1.794-.276-2.326-.823-.532-.546-.802-1.361-.802-2.42v-7.244H43.57v7.59c0 1.558.444 2.782 1.319 3.642.874.86 2.092 1.297 3.62 1.297 1.652 0 2.934-.564 3.803-1.665l.114-.114c.025-.025.05-.04.067-.04.053 0 .063.01.063.062v1.414h2.273V14.101h-2.273v6.323h.002ZM59.679 14.101h-2.273v12.184h2.273V14.1ZM58.54 9.45c-.802 0-1.455.654-1.455 1.459v.092a1.46 1.46 0 0 0 1.456 1.458c.802 0 1.455-.653 1.455-1.458v-.092a1.46 1.46 0 0 0-1.455-1.458ZM71.82 15.515c0 .085-.025.085-.063.085-.022 0-.086 0-.176-.127-.951-1.14-2.313-1.72-4.04-1.72a6.095 6.095 0 0 0-2.904.726c-.904.467-1.654 1.193-2.228 2.159-.56.964-.842 2.159-.842 3.553 0 1.393.283 2.588.844 3.555.574.964 1.325 1.697 2.229 2.181a6.251 6.251 0 0 0 2.904.703c1.73 0 3.088-.579 4.045-1.724.084-.12.151-.12.174-.12.034 0 .062 0 .062.085v1.414h2.273V9.493h-2.273v6.022h-.005Zm-1.009 1.453c.745.76 1.123 1.846 1.123 3.225s-.378 2.474-1.126 3.25c-.73.76-1.714 1.145-2.924 1.145s-2.203-.385-2.946-1.143c-.73-.775-1.103-1.87-1.103-3.25 0-1.378.37-2.466 1.1-3.227.746-.775 1.737-1.167 2.947-1.167s2.194.392 2.924 1.167h.005ZM78.92 9.493h-2.273v16.792h2.274V9.493ZM86.796 12.235c.902-.541 1.963-.814 3.153-.814 1.61 0 2.842.402 3.664 1.192.823.793 1.302 1.873 1.421 3.21l.008.09h2.5l-.006-.105a7.25 7.25 0 0 0-.912-3.247c-.558-1.011-1.41-1.838-2.526-2.457-1.1-.636-2.46-.96-4.037-.96-1.714 0-3.242.369-4.542 1.097a7.498 7.498 0 0 0-3.035 3.058c-.696 1.314-1.049 2.857-1.049 4.586s.345 3.272 1.026 4.586a7.505 7.505 0 0 0 3.014 3.083c1.299.71 2.842 1.073 4.588 1.073 2.214 0 3.965-.573 5.207-1.709 1.26-1.135 1.901-2.72 1.901-4.705v-1.737h-8.588v2.273h6.084c-.023 1.074-.39 1.946-1.096 2.594-.73.67-1.87 1.011-3.388 1.011-1.297 0-2.43-.266-3.362-.792a5.484 5.484 0 0 1-2.149-2.264c-.482-.98-.728-2.129-.728-3.413 0-1.285.251-2.408.75-3.389.497-.976 1.206-1.739 2.107-2.263l-.005.002ZM108.166 20.424c0 1.381-.318 2.437-.942 3.138-.606.68-1.498 1.026-2.646 1.026-1.013 0-1.793-.276-2.325-.823-.532-.546-.803-1.361-.803-2.42v-7.244h-2.273v7.59c0 1.558.445 2.782 1.322 3.642.874.86 2.092 1.297 3.62 1.297 1.652 0 2.936-.564 3.803-1.665l.114-.114c.025-.025.05-.04.068-.04.052 0 .062.01.062.062v1.414h2.273V14.101h-2.273v6.323ZM115.286 14.101h-2.274v12.184h2.274V14.1ZM114.147 9.45a1.46 1.46 0 0 0-1.459 1.459v.092a1.46 1.46 0 0 0 2.917 0v-.092a1.46 1.46 0 0 0-1.458-1.458ZM127.426 15.515c0 .085-.025.085-.062.085-.022 0-.087 0-.176-.127-.952-1.14-2.313-1.72-4.04-1.72a6.095 6.095 0 0 0-2.904.726c-.904.467-1.655 1.193-2.228 2.159-.559.964-.843 2.159-.843 3.553 0 1.393.284 2.588.845 3.555.574.964 1.324 1.697 2.228 2.181a6.255 6.255 0 0 0 2.905.703c1.729 0 3.088-.579 4.044-1.724.085-.12.152-.12.174-.12.035 0 .062 0 .062.085v1.414h2.273V9.493h-2.273v6.022h-.005Zm-1.008 1.453c.745.76 1.123 1.846 1.123 3.225s-.378 2.474-1.126 3.25c-.73.76-1.714 1.145-2.924 1.145s-2.204-.385-2.946-1.143c-.731-.775-1.103-1.87-1.103-3.25 0-1.378.37-2.466 1.1-3.227.745-.775 1.737-1.167 2.947-1.167 1.209 0 2.193.392 2.924 1.167h.005ZM134.525 9.493h-2.273v16.792h2.273V9.493Z"/></svg>
