<svg width="256" height="256" viewBox="0 0 256 256" fill="none" xmlns="http://www.w3.org/2000/svg">
<rect width="256" height="256" rx="60" fill="#0891B2"/>
<path d="M86.8839 176V159.18H100.224V91.32H86.8839V74.5H128.644C142.274 74.5 152.617 77.98 159.674 84.94C166.827 91.8033 170.404 102.05 170.404 115.68V134.82C170.404 148.45 166.827 158.745 159.674 165.705C152.617 172.568 142.274 176 128.644 176H86.8839ZM119.364 158.6H128.934C136.667 158.6 142.322 156.57 145.899 152.51C149.476 148.45 151.264 142.747 151.264 135.4V115.1C151.264 107.657 149.476 101.953 145.899 97.99C142.322 93.93 136.667 91.9 128.934 91.9H119.364V158.6Z" fill="white"/>
</svg>
